<?xml version="1.0" encoding="UTF-8" standalone="no"?>
<!-- Created with Inkscape (http://www.inkscape.org/) -->

<svg
   width="70"
   height="50"
   viewBox="0 0 18.520833 13.229166"
   version="1.1"
   id="svg5"
   xml:space="preserve"
   inkscape:version="1.2.1 (9c6d41e4, 2022-07-14)"
   sodipodi:docname="phcue-ck-fav.svg"
   xmlns:inkscape="http://www.inkscape.org/namespaces/inkscape"
   xmlns:sodipodi="http://sodipodi.sourceforge.net/DTD/sodipodi-0.dtd"
   xmlns:xlink="http://www.w3.org/1999/xlink"
   xmlns="http://www.w3.org/2000/svg"
   xmlns:svg="http://www.w3.org/2000/svg"><sodipodi:namedview
     id="namedview7"
     pagecolor="#ffffff"
     bordercolor="#000000"
     borderopacity="0.25"
     inkscape:showpageshadow="2"
     inkscape:pageopacity="0"
     inkscape:pagecheckerboard="0"
     inkscape:deskcolor="#d1d1d1"
     inkscape:document-units="mm"
     showgrid="false"
     inkscape:zoom="10.15"
     inkscape:cx="33.251232"
     inkscape:cy="40"
     inkscape:window-width="1792"
     inkscape:window-height="1032"
     inkscape:window-x="0"
     inkscape:window-y="25"
     inkscape:window-maximized="0"
     inkscape:current-layer="layer1" /><defs
     id="defs2"><color-profile
       name="ACES-CG-Linear--Academy-Color-Encoding-System-AP1-"
       xlink:href="file:///System/Library/ColorSync/Profiles/ACESCG%20Linear.icc"
       id="color-profile370" /><linearGradient
       id="linearGradient7718"
       inkscape:swatch="solid"><stop
         style="stop-color:#000000;stop-opacity:1;"
         offset="0"
         id="stop7716" /></linearGradient></defs><g
     inkscape:label="Layer 1"
     inkscape:groupmode="layer"
     id="layer1"><g
       id="g141"
       transform="matrix(0.01980933,0,0,0.01879935,0.11530238,-2.0589761)"
       style="fill:#00d455"><g
         id="g86"
         style="fill:#00d455">
	<g
   id="g84"
   style="fill:#00d455">
		<path
   d="M 869.694,385.652 C 858.448,373.199 737.321,274.745 715.671,268.38 c -9.421,-2.735 -18.892,-4.447 -28.681,-5.164 -45.272,-3.315 -95.213,10.875 -126.684,44.794 -2.741,2.956 -4.311,4.645 -4.311,4.645 0,0 1.172,-1.996 3.224,-5.488 9.706,-16.365 23.847,-30.577 38.989,-41.956 6.979,-5.243 14.37,-9.937 22.088,-14.014 2.116,-1.118 21.797,-11.751 23.12,-10.357 -0.003,-0.003 -10.744,-11.33 -10.744,-11.33 -17.273,-17.276 -35.963,-32.167 -61.415,-32.167 -31.547,0 -58.505,19.559 -69.472,47.201 -9.306,-6.917 -24.11,-11.392 -40.788,-11.392 -16.678,0 -31.481,4.475 -40.788,11.392 -10.967,-27.643 -37.925,-47.201 -69.472,-47.201 -25.452,0 -44.142,14.891 -61.416,32.166 0,0 -10.741,11.327 -10.744,11.33 1.322,-1.395 21.003,9.239 23.12,10.357 7.718,4.077 15.109,8.771 22.088,14.014 15.145,11.378 29.283,25.591 38.989,41.956 2.052,3.493 3.224,5.488 3.224,5.488 0,0 -1.566,-1.689 -4.31,-4.645 -31.471,-33.919 -81.411,-48.109 -126.683,-44.794 -9.789,0.717 -19.26,2.429 -28.681,5.164 C 184.673,274.744 63.546,373.198 52.301,385.651 19.797,421.645 0,469.336 0,521.655 c 0,112.112 90.886,203 203,203 102.56,0 187.34,-76.062 201.048,-174.851 15.983,11.645 35.663,18.52 56.951,18.52 21.289,0 40.968,-6.875 56.951,-18.52 13.708,98.788 98.487,174.851 201.048,174.851 112.114,0 203,-90.888 203,-203 -0.002,-52.319 -19.799,-100.008 -52.304,-136.003 z M 198.497,649.155 c -67.611,0 -122.421,-54.811 -122.421,-122.421 0,-67.61 54.81,-122.42 122.421,-122.42 67.611,0 122.421,54.81 122.421,122.42 0,67.61 -54.81,122.421 -122.421,122.421 z m 262.5,-133.921 c -17.833,0 -32.29,-14.457 -32.29,-32.29 0,-17.833 14.457,-32.289 32.29,-32.289 17.833,0 32.29,14.457 32.29,32.289 0,17.833 -14.457,32.29 -32.29,32.29 z m 262.5,133.921 c -67.611,0 -122.421,-54.811 -122.421,-122.421 0,-67.61 54.81,-122.42 122.421,-122.42 67.611,0 122.421,54.81 122.421,122.42 0,67.61 -54.81,122.421 -122.421,122.421 z"
   id="path82"
   style="fill:#00d455" />
	</g>
</g><g
         id="g88"
         style="fill:#00d455">
</g><g
         id="g90"
         style="fill:#00d455">
</g><g
         id="g92"
         style="fill:#00d455">
</g><g
         id="g94"
         style="fill:#00d455">
</g><g
         id="g96"
         style="fill:#00d455">
</g><g
         id="g98"
         style="fill:#00d455">
</g><g
         id="g100"
         style="fill:#00d455">
</g><g
         id="g102"
         style="fill:#00d455">
</g><g
         id="g104"
         style="fill:#00d455">
</g><g
         id="g106"
         style="fill:#00d455">
</g><g
         id="g108"
         style="fill:#00d455">
</g><g
         id="g110"
         style="fill:#00d455">
</g><g
         id="g112"
         style="fill:#00d455">
</g><g
         id="g114"
         style="fill:#00d455">
</g><g
         id="g116"
         style="fill:#00d455">
</g></g></g></svg>
